<?xml version="1.0" standalone="no"?>
<!DOCTYPE svg PUBLIC "-//W3C//DTD SVG 20010904//EN"
 "http://www.w3.org/TR/2001/REC-SVG-20010904/DTD/svg10.dtd">
<svg version="1.0" xmlns="http://www.w3.org/2000/svg"
 width="512.000000pt" height="512.000000pt" viewBox="0 0 512.000000 512.000000"
 preserveAspectRatio="xMidYMid meet">
<metadata>
Created by potrace 1.14, written by Peter Selinger 2001-2017
</metadata>
<g transform="translate(0.000000,512.000000) scale(0.100000,-0.100000)"
fill="#000000" stroke="none">
<path d="M2624 4976 c-117 -31 -186 -64 -282 -135 -77 -57 -189 -170 -223
-225 -14 -24 -37 -36 -116 -63 -146 -50 -143 -50 -143 -21 0 35 82 140 176
226 52 46 72 70 58 68 -30 -6 -104 -45 -104 -55 0 -5 -35 -35 -77 -67 -218
-162 -382 -382 -400 -534 -5 -43 -3 -51 20 -74 31 -31 78 -34 188 -11 107 23
247 42 389 55 167 14 222 40 317 148 179 202 351 359 446 409 36 18 58 14 197
-34 129 -46 248 -123 347 -224 75 -76 163 -186 163 -204 0 -6 -20 -40 -44 -76
-43 -64 -126 -145 -236 -232 -61 -48 -97 -106 -154 -252 -41 -103 -59 -182
-43 -192 6 -3 7 -1 3 5 -11 18 0 14 15 -5 8 -10 9 -14 2 -10 -14 9 -22 -3 -25
-37 -1 -14 -6 -26 -11 -26 -4 0 -7 -8 -5 -17 2 -10 -3 -17 -9 -15 -7 1 -13 -8
-13 -20 0 -12 -3 -19 -6 -16 -3 3 -16 -5 -29 -18 -13 -13 -30 -24 -38 -24 -8
0 -20 -6 -26 -13 -6 -8 -35 -14 -68 -16 -169 -6 -341 -44 -456 -102 -70 -36
-166 -99 -186 -123 -7 -9 -17 -14 -21 -11 -8 5 -108 -108 -117 -133 -3 -8 -12
-10 -22 -7 -27 11 -61 13 -55 3 3 -5 12 -7 20 -4 8 3 14 1 14 -5 0 -6 5 -7 10
-4 6 3 10 2 10 -4 0 -5 -12 -9 -27 -7 -16 1 -36 -1 -45 -6 -21 -10 -24 2 -6
20 7 7 8 12 4 12 -4 0 -17 -10 -28 -22 -11 -13 -17 -18 -14 -12 4 7 -8 14 -29
18 -24 5 -33 11 -28 19 4 7 -2 5 -12 -3 -11 -9 -16 -10 -11 -2 8 14 4 15 -77
14 -57 -1 -121 -16 -144 -34 -7 -5 -27 -12 -45 -14 -18 -3 -44 -7 -58 -9 -13
-3 -28 1 -32 8 -6 9 -8 9 -8 0 0 -7 -12 -13 -27 -13 l-26 0 22 -24 c21 -22 21
-24 5 -22 -11 2 -19 9 -19 17 0 8 -8 14 -17 14 -9 0 -20 4 -25 9 -4 5 -3 6 4
2 6 -3 15 -1 19 6 4 7 4 10 -1 6 -4 -4 -20 -1 -36 8 -16 8 -29 11 -29 7 0 -5
-7 0 -14 10 -8 10 -17 18 -20 17 -4 0 -28 9 -54 21 -66 31 -204 38 -284 14
-54 -17 -57 -20 -51 -44 7 -32 22 -53 33 -46 5 3 12 0 16 -6 5 -8 3 -9 -7 -4
-12 8 -12 6 0 -8 7 -9 16 -15 20 -13 11 7 37 -53 57 -129 10 -38 48 -128 84
-200 37 -71 75 -154 84 -183 l18 -53 38 33 c44 38 47 50 23 104 -10 24 -16 68
-17 114 0 88 18 131 67 156 29 16 30 18 12 25 -11 4 -45 8 -76 8 -43 1 -60 -3
-73 -18 -25 -28 -45 -89 -46 -139 0 -24 -4 -41 -9 -38 -14 9 -71 174 -71 207
0 129 152 157 304 56 63 -42 168 -182 204 -271 29 -73 21 -63 56 -72 l29 -7
-6 44 c-3 25 -9 54 -12 64 -6 16 -5 17 4 5 6 -8 11 -10 11 -5 0 30 128 54 224
43 102 -13 133 -33 177 -117 20 -38 22 -58 22 -165 -1 -129 -16 -231 -39 -257
-8 -9 -13 -18 -12 -20 2 -3 -5 4 -16 16 -10 11 -20 19 -22 17 -2 -1 -26 9 -54
23 -36 18 -65 25 -107 25 -98 0 -125 -13 -199 -95 -89 -98 -152 -130 -249
-129 -134 2 -202 38 -225 119 -17 59 -24 62 -39 17 -12 -35 -10 -45 42 -175
30 -76 57 -140 60 -143 7 -7 35 -7 85 2 35 6 42 4 42 -10 0 -20 67 -89 78 -82
13 8 114 -102 178 -194 95 -135 214 -320 214 -330 0 -6 -27 -10 -60 -10 -47 0
-60 -3 -60 -15 0 -24 66 -190 106 -265 29 -56 41 -69 66 -74 44 -9 88 -7 88 3
0 13 70 52 80 46 12 -7 30 -75 40 -145 4 -30 10 -62 14 -71 5 -12 -20 -39
-101 -106 -59 -50 -127 -110 -149 -135 -23 -25 -57 -56 -75 -69 -19 -13 -70
-51 -113 -86 -66 -52 -87 -63 -125 -66 -25 -2 71 -4 214 -5 143 -1 270 1 283
4 18 5 22 13 22 48 1 22 6 73 13 112 13 71 34 108 106 187 l25 27 31 -30 32
-31 -13 -82 c-8 -45 -14 -114 -14 -154 l0 -72 -72 -4 c-40 -2 217 -2 572 1
355 2 650 5 655 6 6 1 22 13 36 26 65 63 156 147 294 269 83 74 284 264 447
423 l297 288 73 -11 c73 -11 150 -38 161 -56 8 -13 -429 -461 -575 -590 -62
-55 -158 -135 -213 -178 -55 -44 -125 -100 -155 -127 l-56 -47 -89 -4 c-50 -1
127 -4 393 -5 546 -2 578 1 717 68 61 29 95 55 145 107 72 75 100 121 124 202
13 46 16 114 16 416 0 335 -1 364 -18 386 -10 13 -24 38 -30 54 -7 17 -22 43
-35 58 -20 26 -29 28 -112 34 -109 7 -267 -10 -353 -37 -100 -32 -103 -31
-143 52 -67 142 -213 308 -269 308 -25 0 -30 4 -30 24 0 14 4 36 10 50 8 22
16 26 49 26 22 0 71 12 108 26 106 40 110 40 135 8 38 -49 76 -84 91 -84 15 0
310 202 356 243 27 25 73 121 73 155 0 12 3 22 7 22 4 0 7 10 8 22 1 11 7 24
12 27 16 10 91 206 119 311 24 93 25 101 26 480 1 346 -1 388 -16 416 -10 17
-15 34 -13 36 3 3 -7 18 -22 34 -29 32 -103 168 -103 191 0 8 -4 12 -8 9 -4
-2 -8 3 -9 13 -1 10 -12 38 -25 63 -13 24 -36 71 -53 104 -16 32 -33 61 -38
62 -4 2 -5 8 -1 13 3 5 0 9 -5 9 -6 0 -11 6 -11 13 0 8 -11 24 -25 37 -14 13
-23 25 -20 28 2 2 -5 12 -16 21 -11 9 -21 24 -23 33 -1 10 -18 32 -37 50 -19
18 -24 24 -10 13 l26 -20 -20 25 c-11 14 -24 28 -28 31 -5 3 -10 15 -11 25 -2
10 -8 18 -14 17 -5 -1 -18 8 -28 20 -19 21 -19 21 1 7 18 -14 19 -14 6 2 -7
10 -17 16 -21 13 -9 -5 -25 13 -25 28 0 4 -4 7 -10 8 -19 1 -46 33 -40 47 5
12 3 13 -10 2 -13 -11 -14 -10 -10 2 8 20 -54 61 -71 47 -8 -6 -16 -3 -25 8
-13 16 -12 17 4 4 9 -7 17 -11 17 -8 0 9 -60 49 -78 51 -9 2 -15 7 -14 11 4 9
-20 25 -47 30 -11 2 -37 15 -60 29 -22 14 -43 26 -45 26 -2 0 25 -48 60 -107
72 -122 158 -308 149 -323 -3 -6 -13 -10 -21 -10 -8 0 -14 -5 -14 -11 0 -5 5
-7 12 -3 7 4 8 3 4 -5 -5 -7 -13 -8 -19 -4 -22 16 -87 34 -97 28 -5 -3 -10 -1
-10 6 0 8 -4 8 -12 1 -21 -17 -51 16 -109 119 -211 376 -426 570 -745 673
-135 44 -219 56 -419 62 -178 4 -196 3 -281 -20z m1792 -592 c1 -9 0 -13 -4
-10 -3 4 -7 14 -8 22 -1 9 0 13 4 10 3 -4 7 -14 8 -22z m-47 -309 c0 -5 -6 1
-14 15 -8 14 -14 30 -14 35 0 6 6 -1 14 -15 8 -14 14 -29 14 -35z m165 -604
c96 -42 262 -180 237 -196 -6 -3 -8 -11 -5 -17 4 -6 1 -9 -7 -6 -8 3 -31 -1
-51 -8 -27 -9 -39 -10 -44 -2 -5 7 -2 8 7 3 8 -5 11 -4 6 1 -5 5 -14 9 -20 9
-7 1 -30 10 -52 20 -22 10 -66 20 -97 23 -48 4 -67 0 -112 -22 -68 -33 -142
-113 -203 -218 -53 -93 -76 -108 -131 -88 -46 16 -86 44 -180 124 -43 38 -39
64 23 151 75 105 187 188 314 233 87 30 238 27 315 -7z m271 -221 c10 -11 16
-20 13 -20 -3 0 -13 9 -23 20 -10 11 -16 20 -13 20 3 0 13 -9 23 -20z m-1820
-124 c11 -3 20 -5 20 -6 0 -1 9 -3 19 -5 10 -2 23 -10 27 -17 5 -7 9 -9 9 -5
0 5 13 0 29 -9 17 -10 27 -22 24 -28 -3 -6 -3 -8 2 -4 5 5 23 -4 42 -18 18
-14 32 -22 31 -17 -9 25 34 10 86 -31 45 -35 75 -95 76 -149 0 -30 -5 -40 -25
-49 -13 -6 -23 -14 -20 -18 13 -21 23 -216 15 -290 -18 -160 -30 -178 -225
-345 -126 -109 -129 -110 -320 -111 -111 -1 -160 -5 -161 -13 -1 -6 -3 -13 -4
-16 -1 -3 -3 -11 -4 -17 0 -7 -10 -14 -21 -17 -11 -2 -34 -15 -52 -28 -30 -23
-33 -24 -33 -7 0 13 -3 15 -8 7 -4 -7 -17 -11 -29 -10 -14 1 -19 5 -13 12 4 5
10 14 12 18 4 11 -55 37 -62 28 -24 -27 -64 -54 -85 -56 -14 -2 -23 1 -19 6 3
5 0 9 -6 9 -7 0 -10 6 -7 14 3 7 1 18 -5 24 -8 8 -8 16 2 27 10 12 10 15 -5
15 -11 0 -15 5 -11 15 3 9 -1 18 -9 21 -8 4 -15 11 -15 18 0 6 -7 24 -16 41
-8 16 -13 38 -11 47 3 10 1 16 -4 12 -5 -3 -10 1 -10 8 -7 64 -6 78 6 78 15 0
36 78 26 95 -11 19 -8 74 3 68 11 -7 -13 27 -26 38 -4 3 -4 19 1 37 7 22 6 34
-2 39 -7 5 -13 19 -14 33 -4 63 -8 82 -17 87 -5 4 -6 0 -2 -8 4 -8 1 -6 -6 3
-8 9 -23 15 -34 14 -24 -4 -65 14 -58 25 3 5 0 9 -7 9 -7 0 -10 2 -7 5 3 3 24
-2 48 -10 23 -8 44 -15 46 -15 1 0 29 44 60 98 165 281 456 412 769 348z
m-755 -99 c0 -2 -10 -12 -22 -23 l-23 -19 19 23 c18 21 26 27 26 19z m-280
-994 c-4 -16 -20 -53 -34 -84 l-26 -56 -96 -7 c-53 -4 -99 -4 -102 -2 -11 12
35 121 59 138 26 20 94 35 166 37 41 1 41 1 33 -26z m1228 -314 c2 -15 -4
-102 -12 -195 -17 -178 -21 -194 -90 -302 -29 -46 -43 -49 -109 -23 -16 6 -40
11 -53 11 l-26 0 30 38 c67 85 101 190 123 379 l12 112 36 3 c74 7 86 4 89
-23z m-964 0 c-3 -5 -10 -7 -15 -3 -5 3 -7 10 -3 15 3 5 10 7 15 3 5 -3 7 -10
3 -15z m-439 -37 c0 -21 8 -31 35 -44 19 -9 49 -17 65 -18 29 0 31 -3 43 -56
10 -40 10 -59 3 -68 -14 -16 -89 -26 -143 -18 -34 4 -46 12 -77 56 -20 28 -35
54 -33 58 1 5 -3 8 -10 8 -6 0 -8 3 -5 7 4 3 -3 17 -15 30 -19 20 -19 23 -4
23 9 0 15 -4 12 -8 -3 -5 1 -9 8 -9 8 0 12 7 9 15 -4 10 1 13 18 10 14 -2 24
2 24 9 0 7 6 18 14 25 8 7 11 9 9 3 -3 -5 0 -16 8 -23 9 -8 14 -9 14 -2 0 6 5
8 11 4 8 -4 9 1 4 17 -4 13 -4 20 1 16 4 -4 8 -20 9 -35z m1037 -227 c31 -6
41 -20 33 -44 -10 -32 -175 -196 -220 -219 -104 -52 -565 -109 -664 -83 -30 9
-61 30 -102 70 -68 65 -74 93 -32 132 14 13 23 17 18 9 -6 -12 -5 -13 6 -2 19
18 27 15 43 -15 31 -59 53 -73 114 -73 63 0 412 50 529 75 79 18 166 73 211
134 13 17 27 29 32 26 6 -4 20 -8 32 -10z m-388 -577 c2 -13 11 -57 20 -99 9
-41 14 -82 11 -91 -8 -20 -35 -26 -156 -34 l-96 -7 -11 44 c-21 79 -35 169
-28 177 7 7 161 28 223 31 26 1 33 -3 37 -21z"/>
<path d="M4745 3300 c10 -11 20 -20 23 -20 3 0 -3 9 -13 20 -10 11 -20 20 -23
20 -3 0 3 -9 13 -20z"/>
<path d="M2679 2962 c-110 -37 -214 -124 -263 -220 -27 -54 -46 -138 -39 -179
8 -51 34 -123 45 -123 7 0 83 40 106 56 2 1 -4 27 -13 58 -13 46 -15 66 -6
107 15 69 32 98 84 146 102 94 256 97 356 7 60 -54 84 -109 83 -191 -1 -135
-92 -243 -225 -267 -47 -9 -129 14 -181 49 -21 14 -43 24 -48 23 -16 -6 40
-66 88 -94 162 -95 373 28 403 235 l6 46 58 -3 57 -4 -6 34 c-21 118 -48 171
-123 241 -72 68 -127 89 -236 94 -68 2 -104 -1 -146 -15z"/>
<path d="M1770 3939 c-139 -20 -255 -99 -318 -216 -29 -56 -62 -190 -62 -257
0 -64 87 -187 154 -217 79 -36 175 -19 259 45 19 14 37 23 41 18 4 -4 6 0 4 8
-2 8 3 14 10 12 8 -1 11 2 8 7 -4 5 5 22 18 38 144 173 171 423 55 527 -22 20
-50 36 -63 36 -13 0 -30 2 -38 4 -7 2 -38 0 -68 -5z m82 -117 c48 -46 62 -88
55 -169 -7 -89 -52 -177 -123 -242 -94 -86 -165 -89 -245 -12 -74 72 -84 142
-38 267 37 98 130 177 226 193 63 11 81 6 125 -37z"/>
<path d="M1410 2260 c0 -17 72 -90 95 -96 24 -6 89 18 117 43 10 9 18 24 18
35 0 17 -4 16 -50 -8 -57 -30 -82 -28 -142 12 -21 13 -38 20 -38 14z"/>
</g>
</svg>
